<?xml version="1.0" encoding="UTF-8" standalone="no"?><!-- Generator: Gravit.io --><svg xmlns="http://www.w3.org/2000/svg" xmlns:xlink="http://www.w3.org/1999/xlink" style="isolation:isolate" viewBox="0 0 1173 1071.424" width="1173pt" height="1071.424pt"><g><path d=" M 588.97 20.746 C 427.545 21.497 365.413 126.259 385.715 219.519 C 400.239 286.235 424.307 366.293 424.307 366.293 L 587.592 360.356 L 750.882 366.293 C 750.882 366.293 774.944 286.235 789.468 219.519 C 809.767 126.259 754.15 21.497 588.97 20.746 Z " fill="rgb(244,187,161)"/><path d=" M 774.097 729.604 L 748.113 589.877 L 698.067 606.698 L 719.39 729.604 L 774.097 729.604 Z " fill="rgb(244,187,161)"/><path d=" M 753.726 620.057 L 752.48 613.357 L 752.48 613.357 L 753.726 620.057 L 753.726 620.057 Z " fill="rgb(244,187,161)"/><path d=" M 703.662 636.65 C 703.827 634.95 703.992 633.256 704.151 631.572 C 723.793 628.043 740.266 620.559 752.48 613.357 L 753.726 620.057 C 738.827 629.758 721.156 634.013 703.662 636.65 Z " fill="rgb(236,140,104)"/><path d=" M 703.734 512.414 L 711.041 513.615 C 711.041 513.615 719.901 515.973 736.716 537.566 C 753.528 559.163 776.239 595.965 776.239 595.965 C 776.239 595.965 743.831 627.835 694.361 632.956 L 703.734 512.414 Z " fill="rgb(226,227,227)"/><path d=" M 752.48 613.357 L 752.48 613.357 C 752.741 613.204 753.009 613.044 753.264 612.891 C 753.006 613.047 752.744 613.204 752.48 613.357 Z " fill="rgb(226,227,227)"/><path d=" M 752.48 613.357 L 752.48 613.357 C 752.483 613.357 752.48 613.357 752.48 613.357 L 752.48 613.357 L 752.48 613.357 Z " fill="rgb(218,168,145)"/><path d=" M 704.151 631.572 L 704.151 631.569 C 723.772 628.04 740.251 620.556 752.48 613.357 L 752.48 613.357 C 740.266 620.559 723.793 628.043 704.151 631.572 Z " fill="rgb(210,126,96)"/><path d=" M 704.151 631.569 C 709.251 577.525 710.515 530.419 710.783 517.261 C 721.474 536.671 745.029 593.67 746.624 599.091 C 748.338 604.897 752.099 606.641 756.027 606.641 C 761.039 606.641 766.319 603.8 767.959 602.929 C 764.22 605.804 759.276 609.299 753.264 612.891 C 753.009 613.044 752.741 613.204 752.48 613.357 C 752.48 613.357 752.483 613.357 752.48 613.357 C 740.251 620.556 723.772 628.04 704.151 631.569 Z " fill="rgb(201,202,204)"/><path d=" M 455.265 729.604 L 476.582 606.698 L 426.535 589.877 L 400.557 729.604 L 455.265 729.604 Z " fill="rgb(244,187,161)"/><path d=" M 470.777 636.467 C 452.745 635.236 435.641 629.673 421.298 618.069 L 422.172 613.357 C 434.347 620.535 450.751 627.995 470.302 631.536 C 470.458 633.175 470.614 634.815 470.777 636.467 Z " fill="rgb(236,140,104)"/><path d=" M 470.921 512.414 L 463.608 513.615 C 463.608 513.615 454.754 515.973 437.939 537.566 C 421.127 559.163 398.416 595.965 398.416 595.965 C 398.416 595.965 430.824 627.835 480.294 632.956 L 470.921 512.414 Z " fill="rgb(226,227,227)"/><path d=" M 422.169 613.357 C 421.313 612.849 420.478 612.348 419.664 611.846 C 420.478 612.348 421.313 612.849 422.172 613.354 L 422.169 613.357 Z " fill="rgb(226,227,227)"/><path d=" M 422.172 613.357 C 422.172 613.357 422.172 613.357 422.169 613.357 L 422.172 613.354 L 422.172 613.357 L 422.172 613.357 Z " fill="rgb(218,168,145)"/><path d=" M 470.302 631.536 C 450.751 627.995 434.347 620.535 422.172 613.357 L 422.172 613.357 C 434.359 620.532 450.769 627.989 470.302 631.532 L 470.302 631.536 Z " fill="rgb(210,126,96)"/><path d=" M 470.302 631.532 C 450.769 627.989 434.359 620.532 422.172 613.357 L 422.172 613.354 C 421.313 612.849 420.478 612.348 419.664 611.846 C 414.423 608.627 410.069 605.524 406.693 602.929 C 408.333 603.8 413.615 606.641 418.625 606.641 C 422.553 606.641 426.313 604.897 428.025 599.091 C 429.617 593.703 452.907 537.332 463.677 517.607 C 463.962 531.22 465.248 577.966 470.302 631.532 Z " fill="rgb(201,202,204)"/><path d=" M 636.827 479.501 C 619.976 474.924 603.236 473.218 587.228 473.353 C 571.227 473.218 554.475 474.924 537.626 479.501 C 537.626 479.501 491.881 490.418 463.608 513.615 C 463.608 513.615 465.136 635.998 484.06 729.604 L 584.507 729.604 L 589.949 729.604 L 690.399 729.604 C 709.317 635.998 710.849 513.615 710.849 513.615 C 682.582 490.418 636.827 479.501 636.827 479.501 Z " fill="rgb(231,233,235)"/><path d=" M 563.493 451.358 L 565.418 487.718 C 565.418 487.718 566.956 511.81 584.787 510.231 C 584.787 510.231 605.698 512.267 609.564 493.127 L 611.161 451.985 L 563.493 451.358 Z " fill="rgb(244,187,161)"/><path d=" M 564.713 474.438 L 564.352 467.602 L 564.355 467.602 L 564.716 474.438 L 564.713 474.438 Z " fill="rgb(244,196,178)"/><path d=" M 564.752 475.119 C 564.752 475.119 564.752 475.119 564.749 475.119 L 564.713 474.438 L 564.716 474.438 L 564.752 475.119 Z " fill="rgb(233,186,169)"/><path d=" M 582.456 477.246 C 576.449 477.246 570.494 476.6 564.752 475.119 L 564.716 474.438 L 564.355 467.602 C 572.005 468.599 579.765 469.287 587.64 469.647 C 595.247 469.272 602.902 468.536 610.558 467.464 L 610.332 473.278 C 601.301 475.681 591.814 477.246 582.456 477.246 Z " fill="rgb(240,164,133)"/><path d=" M 429.04 301.723 C 429.04 301.723 412.781 261.664 380.841 283.544 C 348.901 305.429 367.407 386.517 432.068 377.636 L 429.04 301.723 Z " fill="rgb(244,187,161)"/><path d=" M 385.129 303.693 C 390.109 298.747 398.62 305.11 402.17 308.543 C 415.444 321.373 419.625 347.387 416.721 364.467 C 416.583 365.302 415.102 364.233 415.084 363.677 C 414.838 355.106 414.03 346.285 412.306 337.714 C 408.603 344.63 398.338 350.042 391.893 346.015 C 391.511 345.775 391.289 344.964 391.974 345.228 C 395.635 346.583 401.323 343.006 403.942 340.876 C 407.438 338.035 408.984 334.446 410.615 330.581 C 410.024 328.428 409.396 326.274 408.663 324.187 C 406.194 317.097 394.56 297.263 385.045 309.354 C 382.12 313.066 381.174 319.079 380.165 323.596 C 380.048 324.07 379.192 323.466 379.204 323.121 C 379.54 316.132 379.85 308.925 385.129 303.693 Z " fill="rgb(235,139,104)"/><path d=" M 419.243 378.234 C 402.984 377.414 390.352 370.371 381.432 360.38 L 381.856 360.296 C 386.946 358.767 383.745 351.727 382.225 348.883 C 376.402 337.942 374.237 322.502 378.582 310.772 C 381.604 302.624 386.982 299.248 392.761 299.248 C 398.587 299.248 404.819 302.687 409.438 308.129 C 413.303 315.631 417.369 323.028 420.481 330.921 C 420.667 331.389 420.982 331.578 421.355 331.578 C 421.613 331.578 421.895 331.485 422.181 331.335 C 421.397 347.045 417.439 362.92 419.243 378.234 Z  M 412.306 337.714 C 414.03 346.285 414.838 355.106 415.084 363.677 C 415.099 364.086 415.904 364.773 416.384 364.773 C 416.556 364.773 416.685 364.686 416.721 364.467 C 419.625 347.387 415.444 321.373 402.17 308.543 C 399.548 306.011 394.226 301.879 389.613 301.879 C 387.979 301.879 386.433 302.399 385.129 303.693 C 379.85 308.925 379.54 316.132 379.204 323.121 C 379.195 323.376 379.66 323.77 379.949 323.77 C 380.054 323.77 380.135 323.719 380.165 323.596 C 381.174 319.079 382.12 313.066 385.045 309.354 C 387.184 306.636 389.427 305.531 391.653 305.531 C 399.326 305.531 406.747 318.688 408.663 324.187 C 409.396 326.274 410.024 328.428 410.615 330.581 C 408.984 334.446 407.438 338.035 403.942 340.876 C 401.722 342.681 397.296 345.525 393.77 345.525 C 393.136 345.525 392.533 345.435 391.974 345.228 C 391.881 345.192 391.803 345.174 391.74 345.174 C 391.352 345.174 391.562 345.808 391.893 346.015 C 393.421 346.97 395.16 347.393 396.98 347.393 C 402.834 347.393 409.48 342.991 412.306 337.714 Z  M 405.278 346.637 C 405.098 346.637 404.906 346.673 404.696 346.766 C 400.731 348.46 394.935 349.258 391.938 352.559 C 388.385 356.454 392.809 360.755 396.326 362.848 C 398.203 363.968 399.896 364.455 401.41 364.455 C 408.657 364.455 411.684 353.241 409.87 346.529 C 409.681 345.841 408.99 345.432 408.309 345.432 C 408.017 345.432 407.732 345.504 407.483 345.661 C 406.915 346.027 406.345 346.378 405.771 346.736 C 405.621 346.673 405.455 346.637 405.278 346.637 Z  M 400.933 289.262 C 396.245 285.04 390.941 281.841 385.697 280.658 C 389.07 278.91 392.247 277.862 395.229 277.375 C 397.269 281.262 399.242 285.187 400.933 289.262 Z " fill="rgb(239,156,125)"/><path d=" M 416.384 364.773 C 415.904 364.773 415.099 364.086 415.084 363.677 C 414.838 355.106 414.03 346.285 412.306 337.714 C 409.48 342.991 402.834 347.393 396.98 347.393 C 395.16 347.393 393.421 346.97 391.893 346.015 C 391.562 345.808 391.352 345.174 391.74 345.174 C 391.803 345.174 391.881 345.192 391.974 345.228 C 392.533 345.435 393.136 345.525 393.77 345.525 C 397.296 345.525 401.722 342.681 403.942 340.876 C 407.438 338.035 408.984 334.446 410.615 330.581 C 410.024 328.428 409.396 326.274 408.663 324.187 C 406.747 318.688 399.326 305.531 391.653 305.531 C 389.427 305.531 387.184 306.636 385.045 309.354 C 382.12 313.066 381.174 319.079 380.165 323.596 C 380.135 323.719 380.054 323.77 379.949 323.77 C 379.66 323.77 379.195 323.376 379.204 323.121 C 379.54 316.132 379.85 308.925 385.129 303.693 C 386.433 302.399 387.979 301.879 389.613 301.879 C 394.226 301.879 399.548 306.011 402.17 308.543 C 415.444 321.373 419.625 347.387 416.721 364.467 C 416.685 364.686 416.556 364.773 416.384 364.773 Z " fill="rgb(230,118,85)"/><path d=" M 743.96 301.723 C 743.96 301.723 760.219 261.664 792.159 283.544 C 824.099 305.429 805.593 386.517 740.935 377.636 L 743.96 301.723 Z " fill="rgb(244,187,161)"/><path d=" M 787.87 303.693 C 782.891 298.747 774.38 305.11 770.833 308.543 C 757.559 321.373 753.375 347.387 756.279 364.467 C 756.42 365.302 757.898 364.233 757.916 363.677 C 758.162 355.106 758.97 346.285 760.697 337.714 C 764.397 344.63 774.662 350.042 781.107 346.015 C 781.489 345.775 781.714 344.964 781.026 345.228 C 777.365 346.583 771.677 343.006 769.061 340.876 C 765.565 338.035 764.016 334.446 762.385 330.581 C 762.976 328.428 763.604 326.274 764.337 324.187 C 766.809 317.097 778.44 297.263 787.955 309.354 C 790.88 313.066 791.826 319.079 792.835 323.596 C 792.952 324.07 793.808 323.466 793.796 323.121 C 793.463 316.132 793.15 308.925 787.87 303.693 Z " fill="rgb(235,139,104)"/><path d=" M 753.75 378.234 C 756.048 358.776 749.032 338.423 751.056 318.634 C 750.96 322.064 750.879 325.512 750.864 328.992 L 750.864 328.992 L 750.864 328.992 L 750.864 328.992 L 750.864 328.992 C 750.861 329.932 752.432 331.578 753.528 331.578 C 753.9 331.578 754.219 331.389 754.402 330.921 C 758.027 321.731 762.943 313.216 767.328 304.42 C 771.295 301.173 775.881 299.248 780.242 299.248 C 786.017 299.248 791.396 302.627 794.418 310.772 C 798.763 322.502 796.601 337.942 790.775 348.883 C 789.255 351.727 786.054 358.767 791.144 360.296 L 791.568 360.38 C 782.648 370.374 770.019 377.417 753.75 378.234 Z  M 783.387 301.879 C 778.777 301.879 773.452 306.011 770.833 308.543 C 757.559 321.373 753.375 347.387 756.279 364.467 C 756.315 364.686 756.444 364.773 756.616 364.773 C 757.096 364.773 757.901 364.086 757.916 363.677 C 758.162 355.106 758.97 346.285 760.697 337.714 C 763.52 342.991 770.166 347.393 776.02 347.393 C 777.84 347.393 779.581 346.97 781.107 346.015 C 781.437 345.808 781.648 345.174 781.26 345.174 C 781.197 345.174 781.119 345.192 781.026 345.228 C 780.467 345.435 779.864 345.525 779.23 345.525 C 775.704 345.525 771.277 342.681 769.061 340.876 C 765.565 338.035 764.016 334.446 762.385 330.581 C 762.976 328.428 763.604 326.274 764.337 324.187 C 766.253 318.688 773.677 305.531 781.347 305.531 C 783.573 305.531 785.816 306.636 787.955 309.354 C 790.88 313.066 791.826 319.079 792.835 323.596 C 792.865 323.719 792.946 323.77 793.051 323.77 C 793.342 323.77 793.805 323.376 793.796 323.121 C 793.463 316.132 793.15 308.925 787.87 303.693 C 786.567 302.399 785.023 301.879 783.387 301.879 Z  M 764.694 345.432 C 764.009 345.432 763.319 345.841 763.13 346.529 C 761.316 353.241 764.343 364.455 771.593 364.455 C 773.103 364.455 774.8 363.968 776.674 362.848 C 780.194 360.755 784.615 356.454 781.062 352.559 C 778.065 349.258 772.268 348.46 768.304 346.766 C 768.094 346.673 767.902 346.637 767.722 346.637 C 767.544 346.637 767.379 346.673 767.229 346.736 C 766.655 346.378 766.085 346.027 765.517 345.661 C 765.271 345.504 764.983 345.432 764.694 345.432 Z  M 775.007 286.818 C 775.981 284.643 777.029 282.508 778.104 280.394 C 778.074 280.448 778.041 280.502 778.008 280.556 C 778.491 279.604 778.984 278.658 779.479 277.712 C 781.957 278.282 784.567 279.237 787.303 280.658 C 783.131 281.598 778.918 283.82 775.007 286.818 Z " fill="rgb(239,156,125)"/><path d=" M 756.616 364.773 C 756.444 364.773 756.315 364.686 756.279 364.467 C 753.375 347.387 757.559 321.373 770.833 308.543 C 773.452 306.011 778.777 301.879 783.387 301.879 C 785.023 301.879 786.567 302.399 787.87 303.693 C 793.15 308.925 793.463 316.132 793.796 323.121 C 793.805 323.376 793.342 323.77 793.051 323.77 C 792.946 323.77 792.865 323.719 792.835 323.596 C 791.826 319.079 790.88 313.066 787.955 309.354 C 785.816 306.636 783.573 305.531 781.347 305.531 C 773.677 305.531 766.253 318.688 764.337 324.187 C 763.604 326.274 762.976 328.428 762.385 330.581 C 764.016 334.446 765.565 338.035 769.061 340.876 C 771.277 342.681 775.704 345.525 779.23 345.525 C 779.864 345.525 780.467 345.435 781.026 345.228 C 781.119 345.192 781.197 345.174 781.26 345.174 C 781.648 345.174 781.437 345.808 781.107 346.015 C 779.581 346.97 777.84 347.393 776.02 347.393 C 770.166 347.393 763.52 342.991 760.697 337.714 C 758.97 346.285 758.162 355.106 757.916 363.677 C 757.901 364.086 757.096 364.773 756.616 364.773 Z " fill="rgb(230,118,85)"/><path d=" M 776.503 239.363 C 779.606 222.851 777.677 206.332 773.031 190.454 C 752.219 153.435 702.196 134.242 652.913 125.356 C 635.977 121.514 618.763 119.255 601.869 118.88 C 597.046 118.775 591.88 118.78 586.501 118.88 C 581.117 118.78 575.954 118.775 571.125 118.88 C 554.234 119.255 537.017 121.514 520.087 125.356 C 470.798 134.242 420.781 153.435 399.969 190.454 C 395.317 206.332 393.388 222.851 396.491 239.363 C 400.978 263.289 412.934 284.874 419.871 308.051 C 427.686 334.113 413.555 361.653 421.045 387.193 C 429.884 417.307 467.794 438.759 494.337 449.267 C 523.556 460.83 554.604 468.146 587.64 469.647 C 618.171 468.146 649.441 460.83 678.657 449.267 C 705.206 438.759 743.11 417.307 751.948 387.193 C 759.442 361.653 745.311 334.113 753.123 308.051 C 760.063 284.874 772.016 263.289 776.503 239.363 Z " fill="rgb(244,187,161)"/><path d=" M 750.471 286.571 C 745.479 277.727 739.584 269.323 732.61 261.5 C 696.523 221.004 644.035 204.922 591.397 204.922 C 572.113 204.922 552.805 207.082 534.284 210.99 C 494.665 219.346 453 238.726 426.4 270.555 C 428.181 257.543 430.329 244.563 432.719 231.679 C 435.822 214.955 440.606 198.555 444.555 182.025 C 445.435 178.359 446.501 174.617 447.219 170.851 C 463.824 177.995 482.736 181.632 499.617 184.588 C 527.631 189.489 556.286 192.507 584.748 192.507 C 584.832 192.507 584.91 192.507 584.994 192.507 C 585.808 192.507 586.625 192.484 587.438 192.484 C 588.255 192.484 589.075 192.507 589.886 192.507 C 589.967 192.507 590.048 192.507 590.129 192.507 C 618.597 192.507 647.252 189.49 675.266 184.588 C 692.141 181.632 711.059 177.995 727.664 170.851 C 728.376 174.617 729.448 178.359 730.322 182.025 C 734.277 198.555 739.055 214.955 742.161 231.679 C 745.533 249.846 748.423 268.201 750.471 286.571 Z " fill="rgb(241,168,139)"/><path d=" M 805.341 174.986 C 802.313 135.533 787.216 103.488 761.201 78.354 C 749.369 50.708 721.742 32.173 695.643 19.702 C 657.376 1.419 609.531 -0.101 568.028 0.005 C 530.746 0.104 492.385 14.593 460.944 33.68 C 441.134 45.699 414.129 65.437 403.548 89.217 C 383.751 112.527 372.149 140.994 369.542 174.986 C 367.362 203.459 374.852 230.74 385.174 256.954 C 389.893 268.932 397.353 279.637 401.945 291.827 C 407.071 305.423 415.168 317.442 420.481 330.921 C 421.211 332.771 424.025 330.254 424.019 328.992 C 423.968 314.961 422.763 301.477 424.313 287.421 C 426.37 268.768 429.299 250.126 432.719 231.679 C 435.822 214.955 440.606 198.555 444.555 182.025 C 445.435 178.359 446.501 174.617 447.219 170.851 C 463.824 177.995 482.736 181.632 499.617 184.588 C 527.712 189.504 556.451 192.525 584.994 192.507 C 585.808 192.507 586.625 192.484 587.438 192.484 C 588.255 192.484 589.075 192.507 589.886 192.507 C 618.432 192.525 647.17 189.504 675.266 184.588 C 692.141 181.632 711.059 177.995 727.664 170.851 C 728.376 174.617 729.448 178.359 730.322 182.025 C 734.277 198.555 739.055 214.955 742.161 231.679 C 745.584 250.126 748.513 268.768 750.567 287.421 C 752.114 301.477 750.918 314.961 750.864 328.992 C 750.858 330.254 753.675 332.771 754.402 330.921 C 759.715 317.442 767.812 305.423 772.932 291.827 C 777.53 279.637 784.99 268.932 789.708 256.954 C 800.031 230.74 807.515 203.459 805.341 174.986 Z " fill="rgb(112,83,59)"/><path d=" M 762.343 85.756 C 762.343 85.756 756.336 130.054 727.805 164.592 C 727.805 164.592 759.339 142.067 762.343 85.756 Z " fill="rgb(76,60,47)"/><path d=" M 395.208 277.339 C 391.677 270.611 387.95 264.002 385.174 256.954 C 385.036 256.6 384.898 256.246 384.76 255.892 C 384.898 256.246 385.036 256.601 385.174 256.954 C 387.95 264.002 391.677 270.611 395.208 277.339 L 395.208 277.339 Z  M 403.356 89.442 C 403.362 89.437 403.365 89.433 403.368 89.429 C 403.365 89.433 403.359 89.437 403.356 89.442 Z  M 403.449 89.333 C 403.482 89.294 403.515 89.256 403.548 89.217 C 403.515 89.255 403.482 89.294 403.449 89.333 Z " fill="rgb(181,157,138)"/><path d=" M 413.282 302.456 C 412.874 302.456 412.459 302.317 412.153 302.056 C 407.218 297.822 403.401 292.683 400.053 287.205 C 400.719 288.725 401.359 290.259 401.945 291.827 C 400.056 286.809 397.68 282.045 395.208 277.339 C 391.677 270.611 387.95 264.002 385.174 256.954 C 385.036 256.601 384.898 256.246 384.76 255.892 C 383.811 253.463 382.898 251.025 382.003 248.578 C 386.889 256.696 392.713 264.274 399.641 271.02 C 399.954 271.324 400.314 271.457 400.662 271.457 C 401.422 271.457 402.131 270.83 402.203 269.958 C 403.149 258.027 401.002 246.419 402.726 234.476 C 403.236 230.963 403.912 227.479 404.651 224.012 C 402.392 241.391 411.45 275.387 412.132 275.387 C 412.144 275.387 412.153 275.378 412.159 275.36 C 420.235 253.71 422.061 230.106 423.643 207.236 C 425.175 185.175 427.92 160.961 419.015 140.061 C 418.799 139.548 418.319 139.323 417.817 139.323 C 417.267 139.323 416.694 139.597 416.423 140.061 C 403.636 161.911 396.884 185.609 395.77 210.286 C 392.689 180.242 396.902 149.347 412.51 123.057 C 413.165 121.95 412.237 120.823 411.162 120.823 C 410.928 120.823 410.684 120.877 410.453 120.998 C 401.665 125.526 393.776 132.688 388.847 141.387 C 391.049 130.025 394.713 119.05 399.993 108.539 C 400.533 107.465 399.605 106.22 398.617 106.22 C 398.278 106.22 397.929 106.368 397.635 106.72 C 385.364 121.361 377.18 138.22 372.02 156.11 C 376.867 130.409 387.448 108.252 403.356 89.442 C 403.359 89.437 403.365 89.433 403.368 89.429 C 403.395 89.398 403.422 89.364 403.449 89.333 C 403.482 89.294 403.515 89.255 403.548 89.217 L 403.548 89.217 C 414.129 65.437 441.134 45.699 460.944 33.68 C 492.385 14.593 530.746 0.104 568.028 0.005 C 569.221 0.002 570.41 0 571.611 0 C 612.26 0 658.475 1.943 695.643 19.702 C 721.546 32.08 748.957 50.435 760.934 77.739 C 749.612 51.923 724.49 34.116 699.896 21.79 C 700.872 22.529 701.857 23.251 702.812 24.025 C 723.883 40.983 747.209 68.939 747.738 97.464 C 748.384 132.454 718.549 161.917 686.898 171.883 C 668.422 177.696 648.825 180.371 629.583 182.154 C 618.88 183.147 608.194 183.68 597.514 183.68 C 585.219 183.68 572.936 182.973 560.643 181.444 C 505.693 174.605 449.97 155.617 415.667 112.697 C 426.505 133.885 434.473 156.632 433.884 179.89 C 433.38 199.88 428.443 219.619 425.187 239.275 C 421.76 259.992 418.604 280.763 414.664 301.392 C 414.522 302.122 413.913 302.456 413.282 302.456 Z  M 525.085 41.833 C 511.435 45.951 480.411 65.109 466.146 73.743 C 451.177 82.8 436.473 100.896 431.731 112.785 C 428.172 121.713 516.327 165.783 557.868 173.848 C 574.921 177.158 591.364 178.478 606.75 178.478 C 637.133 178.478 663.379 173.329 681.957 168.179 C 700.539 163.03 711.452 157.881 711.173 157.881 C 711.167 157.881 711.158 157.883 711.143 157.888 C 693.565 162.996 675.353 165.304 657.042 165.304 C 631.454 165.304 605.671 160.797 581.156 153.124 C 582.132 153.312 583.099 153.564 584.078 153.693 C 604.362 156.373 622 157.422 637.004 157.422 C 684.438 157.421 705.473 146.931 700.025 144.32 C 689.273 139.17 669.142 125.385 658.216 120.622 C 648.414 116.346 638.431 112.533 628.346 108.996 C 632.998 109.9 637.632 110.873 642.242 111.906 C 656.438 115.073 670.509 118.727 684.129 123.849 C 697.796 128.987 709.035 137.815 722.168 143.739 C 722.171 143.74 722.174 143.741 722.174 143.741 C 722.709 143.74 693.259 92.182 608.789 66.798 C 624.198 66.921 639.287 69.332 654.414 72.382 C 668.974 75.315 683.297 79.298 697.229 84.466 C 704.479 87.152 711.557 90.173 718.093 94.326 C 724.075 98.133 729.559 102.497 736.058 105.448 C 736.061 105.449 736.064 105.449 736.067 105.449 C 736.818 105.449 718.249 39.362 631.448 21.186 C 617.435 17.721 603.022 16.206 588.562 16.206 C 570.146 16.206 551.652 18.666 533.842 22.688 C 486.97 33.275 438.221 49.119 414.922 92.508 C 414.91 92.529 414.91 92.54 414.919 92.54 C 415.552 92.538 462.95 45.162 525.085 41.833 Z  M 758.111 301.483 C 757.45 301.483 756.778 301.077 756.643 300.389 C 753.516 284.541 753.816 268.287 750.705 252.379 C 747.455 235.761 743.239 219.278 740.881 202.491 C 739.079 189.692 737.061 175.883 741.909 163.471 C 746.044 152.89 752.993 143.628 761.424 136.049 C 765.049 132.793 768.508 131.426 771.767 131.426 C 784.618 131.426 794.288 152.706 798.244 163.225 C 801.421 171.672 804.307 181.239 805.593 190.73 C 805.791 185.935 805.752 181.101 805.428 176.232 C 805.623 179.149 805.716 182.054 805.719 184.947 C 805.722 209.838 798.82 233.812 789.708 256.954 C 786.492 265.123 781.999 272.698 778.008 280.556 C 773.079 288.824 766.995 296.398 758.847 301.287 C 758.628 301.419 758.369 301.483 758.111 301.483 Z  M 770.704 135.338 C 767.469 135.338 763.931 136.973 760.09 140.812 C 746.347 154.556 740.2 175.285 743.065 194.384 C 745.404 209.981 751.558 224.769 753.585 240.425 C 755.835 257.797 757.586 293.431 758.129 293.428 C 758.141 293.428 758.15 293.413 758.162 293.38 C 763.739 276.462 763.682 257.587 763.961 239.937 C 764.021 236.53 763.985 233.116 763.904 229.702 C 765.307 241.897 766.205 254.203 768.028 266.351 C 768.133 267.054 768.827 267.44 769.506 267.44 C 770.034 267.44 770.551 267.207 770.773 266.709 C 777.038 252.813 776.68 236.946 776.059 222.024 C 775.32 204.367 771.1 187.815 766.502 170.986 C 778.035 187.715 780.368 210.251 781.489 229.913 C 781.543 230.85 782.29 231.378 783.032 231.378 C 783.624 231.378 784.213 231.043 784.441 230.312 C 789.871 212.826 791.357 194.677 789.525 176.734 C 792.054 180.893 794.601 185.046 797.463 188.999 C 797.469 189.007 797.472 189.011 797.478 189.011 C 797.727 189.011 795.673 175.592 791.237 162.174 C 786.801 148.755 779.981 135.338 770.704 135.338 Z  M 772.932 291.827 C 773.037 291.548 773.142 291.268 773.254 290.989 C 773.142 291.268 773.037 291.548 772.932 291.827 Z  M 773.284 290.911 C 773.284 290.908 773.284 290.905 773.287 290.905 C 773.287 290.905 773.284 290.908 773.284 290.911 Z  M 805.428 176.218 C 805.425 176.184 805.425 176.149 805.422 176.115 C 805.425 176.15 805.425 176.184 805.428 176.218 Z  M 805.416 176.02 C 805.413 176.007 805.413 175.995 805.413 175.983 C 805.413 175.995 805.413 176.007 805.416 176.02 Z  M 805.401 175.824 C 805.401 175.82 805.401 175.816 805.401 175.813 C 805.401 175.816 805.401 175.82 805.401 175.824 Z  M 805.389 175.656 C 805.389 175.654 805.389 175.653 805.389 175.651 C 805.389 175.653 805.389 175.654 805.389 175.656 Z  M 805.353 175.161 C 805.353 175.156 805.353 175.152 805.353 175.147 C 805.353 175.152 805.353 175.156 805.353 175.161 Z  M 761.165 78.276 C 761.159 78.257 761.15 78.239 761.141 78.219 C 761.15 78.239 761.156 78.255 761.165 78.276 Z  M 761.132 78.199 C 761.126 78.179 761.117 78.158 761.108 78.138 C 761.117 78.159 761.123 78.177 761.132 78.199 Z  M 761.099 78.122 C 761.09 78.101 761.081 78.081 761.072 78.06 C 761.081 78.08 761.09 78.102 761.099 78.122 Z  M 761.066 78.045 C 761.057 78.023 761.048 77.999 761.036 77.977 C 761.048 78 761.057 78.021 761.066 78.045 Z  M 761.033 77.969 C 761.024 77.945 761.015 77.926 761.006 77.902 C 761.015 77.924 761.024 77.948 761.033 77.969 Z  M 761 77.892 C 760.991 77.869 760.979 77.843 760.97 77.821 C 760.979 77.845 760.991 77.868 761 77.892 Z  M 760.967 77.817 C 760.958 77.793 760.946 77.77 760.937 77.746 C 760.946 77.769 760.958 77.794 760.967 77.817 Z " fill="rgb(85,62,49)"/><path d=" M 773.254 290.989 C 773.263 290.962 773.272 290.938 773.284 290.911 C 773.272 290.938 773.263 290.962 773.254 290.989 Z  M 773.287 290.905 C 773.824 289.526 774.398 288.166 775.001 286.821 C 775.001 286.821 775.004 286.818 775.007 286.818 C 774.404 288.163 773.827 289.524 773.287 290.905 Z " fill="rgb(175,119,92)"/><path d=" M 775.001 286.821 C 775.947 284.703 776.96 282.619 778.008 280.556 C 778.041 280.502 778.074 280.448 778.104 280.394 C 777.029 282.508 775.981 284.643 775.007 286.818 C 775.004 286.818 775.001 286.821 775.001 286.821 Z " fill="rgb(171,101,76)"/><path d=" M 805.428 176.232 C 805.428 176.228 805.428 176.222 805.428 176.218 C 805.428 176.223 805.428 176.227 805.428 176.232 Z  M 805.422 176.115 C 805.419 176.082 805.416 176.053 805.416 176.02 C 805.416 176.051 805.419 176.083 805.422 176.115 Z  M 805.413 175.983 C 805.41 175.931 805.404 175.876 805.401 175.824 C 805.404 175.877 805.41 175.93 805.413 175.983 Z  M 805.401 175.813 C 805.398 175.761 805.392 175.708 805.389 175.656 C 805.392 175.708 805.398 175.76 805.401 175.813 Z  M 805.389 175.651 C 805.377 175.488 805.365 175.324 805.353 175.161 C 805.365 175.324 805.377 175.488 805.389 175.651 Z  M 805.353 175.147 C 805.346 175.093 805.343 175.04 805.341 174.986 C 805.343 175.04 805.349 175.093 805.353 175.147 Z  M 761.201 78.354 C 761.189 78.328 761.177 78.301 761.165 78.276 C 761.177 78.301 761.189 78.328 761.201 78.354 Z  M 761.141 78.219 C 761.141 78.214 761.135 78.204 761.132 78.199 C 761.135 78.206 761.138 78.213 761.141 78.219 Z  M 761.108 78.138 C 761.105 78.133 761.102 78.127 761.099 78.122 C 761.102 78.127 761.105 78.133 761.108 78.138 Z  M 761.072 78.06 C 761.072 78.055 761.069 78.05 761.066 78.045 C 761.069 78.051 761.072 78.054 761.072 78.06 Z  M 761.036 77.977 C 761.036 77.975 761.036 77.971 761.033 77.969 C 761.036 77.971 761.036 77.975 761.036 77.977 Z  M 761.006 77.902 C 761.003 77.898 761.003 77.895 761 77.892 C 761.003 77.895 761.003 77.899 761.006 77.902 Z  M 760.97 77.821 C 760.97 77.819 760.967 77.819 760.967 77.817 C 760.967 77.819 760.97 77.819 760.97 77.821 Z  M 760.937 77.746 C 760.934 77.743 760.934 77.743 760.934 77.739 C 760.934 77.742 760.934 77.743 760.937 77.746 Z " fill="rgb(181,157,138)"/><path d=" M 753.528 331.578 C 752.432 331.575 750.861 329.932 750.864 328.992 C 750.897 320.442 751.354 312.093 751.357 303.696 L 751.357 303.696 C 751.357 298.314 751.171 292.911 750.567 287.421 C 748.513 268.768 745.584 250.126 742.161 231.679 C 739.055 214.955 734.277 198.555 730.322 182.025 C 729.448 178.359 728.376 174.617 727.664 170.851 C 711.059 177.995 692.141 181.632 675.266 184.588 C 647.252 189.49 618.597 192.507 590.129 192.507 C 590.048 192.507 589.967 192.507 589.886 192.507 C 589.075 192.507 588.255 192.484 587.438 192.484 C 586.625 192.484 585.808 192.507 584.994 192.507 C 584.91 192.507 584.832 192.507 584.748 192.507 C 556.286 192.507 527.631 189.489 499.617 184.588 C 482.736 181.632 463.824 177.995 447.219 170.851 C 446.501 174.617 445.435 178.359 444.555 182.025 C 440.606 198.555 435.822 214.955 432.719 231.679 C 429.299 250.126 426.37 268.768 424.313 287.421 C 423.712 292.857 423.526 298.206 423.523 303.537 L 423.523 303.537 C 423.523 311.988 423.986 320.388 424.019 328.992 C 424.022 329.713 423.103 330.842 422.181 331.335 C 421.895 331.485 421.613 331.578 421.355 331.578 C 420.982 331.578 420.667 331.389 420.481 330.921 C 415.168 317.442 407.071 305.423 401.945 291.827 L 401.945 291.827 C 401.359 290.259 400.719 288.725 400.053 287.205 C 403.401 292.683 407.218 297.822 412.153 302.056 C 412.459 302.317 412.874 302.456 413.282 302.456 C 413.913 302.456 414.522 302.122 414.664 301.392 C 418.604 280.763 421.76 259.992 425.187 239.275 C 428.443 219.619 433.38 199.88 433.884 179.89 C 434.473 156.632 426.505 133.885 415.667 112.697 C 449.97 155.617 505.693 174.605 560.643 181.444 C 572.936 182.973 585.219 183.68 597.514 183.68 C 608.194 183.68 618.88 183.147 629.583 182.154 C 648.825 180.371 668.422 177.696 686.898 171.883 C 718.549 161.917 748.384 132.454 747.738 97.464 C 747.209 68.939 723.883 40.983 702.812 24.025 C 701.857 23.251 700.872 22.529 699.896 21.79 C 724.49 34.116 749.612 51.923 760.934 77.739 C 760.934 77.743 760.934 77.743 760.937 77.746 C 760.946 77.77 760.958 77.793 760.967 77.817 C 760.967 77.819 760.97 77.819 760.97 77.821 C 760.979 77.843 760.991 77.869 761 77.892 C 761.003 77.895 761.003 77.898 761.006 77.902 C 761.015 77.926 761.024 77.945 761.033 77.969 C 761.036 77.971 761.036 77.975 761.036 77.977 C 761.048 77.999 761.057 78.023 761.066 78.045 C 761.069 78.05 761.072 78.055 761.072 78.06 C 761.081 78.081 761.09 78.101 761.099 78.122 C 761.102 78.127 761.105 78.133 761.108 78.138 C 761.117 78.158 761.126 78.179 761.132 78.199 C 761.135 78.204 761.141 78.214 761.141 78.219 C 761.15 78.239 761.159 78.257 761.165 78.276 C 761.177 78.301 761.189 78.328 761.201 78.354 L 761.201 78.354 C 787.216 103.488 802.313 135.533 805.341 174.986 L 805.341 174.986 C 805.343 175.04 805.346 175.093 805.353 175.147 C 805.353 175.152 805.353 175.156 805.353 175.161 C 805.365 175.324 805.377 175.488 805.389 175.651 C 805.389 175.653 805.389 175.654 805.389 175.656 C 805.392 175.708 805.398 175.761 805.401 175.813 C 805.401 175.816 805.401 175.82 805.401 175.824 C 805.404 175.876 805.41 175.931 805.413 175.983 C 805.413 175.995 805.413 176.007 805.416 176.02 C 805.416 176.053 805.419 176.082 805.422 176.115 C 805.425 176.149 805.425 176.184 805.428 176.218 C 805.428 176.222 805.428 176.228 805.428 176.232 C 805.752 181.101 805.791 185.935 805.593 190.73 C 804.307 181.239 801.421 171.672 798.244 163.225 C 794.288 152.706 784.618 131.426 771.767 131.426 C 768.508 131.426 765.049 132.793 761.424 136.049 C 752.993 143.628 746.044 152.89 741.909 163.471 C 737.061 175.883 739.079 189.692 740.881 202.491 C 743.239 219.278 747.455 235.761 750.705 252.379 C 753.816 268.287 753.516 284.541 756.643 300.389 C 756.778 301.077 757.45 301.483 758.111 301.483 C 758.369 301.483 758.628 301.419 758.847 301.287 C 766.995 296.398 773.079 288.824 778.008 280.556 C 776.296 283.931 774.674 287.358 773.287 290.905 C 773.284 290.905 773.284 290.908 773.284 290.911 C 773.272 290.938 773.263 290.962 773.254 290.989 C 773.142 291.268 773.037 291.548 772.932 291.827 L 772.932 291.827 C 767.812 305.423 759.715 317.442 754.402 330.921 C 754.219 331.389 753.9 331.578 753.528 331.578 Z  M 762.343 85.756 C 762.343 85.756 756.336 130.054 727.805 164.592 C 727.805 164.592 759.339 142.067 762.343 85.756 Z " fill="rgb(67,51,46)"/><path d=" M 727.805 164.592 C 756.336 130.054 762.343 85.756 762.343 85.756 C 759.339 142.067 727.805 164.592 727.805 164.592 Z " fill="rgb(54,47,44)"/><path d=" M 392.256 251.405 C 389.833 248.349 387.556 245.175 385.424 241.926 C 369.467 202.051 366.365 158.028 390.941 120.082 C 391.115 119.816 391.475 119.656 391.758 119.656 C 392.073 119.656 392.292 119.854 392.052 120.323 C 371.173 161.348 380.237 209.207 392.256 251.405 Z " fill="rgb(147,110,74)"/><path d=" M 387.826 209.559 C 382.667 188.788 384.051 166.369 392.668 146.807 C 391.968 153.212 391.592 159.676 390.953 165.994 C 389.475 180.582 387.316 195.047 387.826 209.559 Z " fill="rgb(147,110,74)"/><path d=" M 469.479 50.263 C 504.692 29.945 541.777 21.892 580.339 21.892 C 593.199 21.892 606.227 22.788 619.402 24.424 C 610.744 24.916 602.061 25.703 593.421 26.641 C 592.412 26.636 591.406 26.633 590.397 26.633 C 575.176 26.633 559.962 27.287 544.912 29.598 C 528.746 32.085 512.555 36.249 496.848 41.634 C 487.487 44.021 478.294 46.848 469.479 50.263 Z " fill="rgb(147,110,74)"/><path d=" M 613.095 175.029 C 589.346 175.029 564.25 169.367 543.816 163.26 C 524.036 157.354 503.599 150.139 484.489 140.806 C 478.126 136.636 472.029 132.054 466.551 126.952 C 515.099 153.602 572.212 168.096 627.472 168.095 C 633.097 168.095 638.707 167.945 644.284 167.642 C 636.47 170.64 628.394 172.886 620.228 174.851 C 617.868 174.971 615.489 175.029 613.095 175.029 Z " fill="rgb(147,110,74)"/><path d=" M 621.703 152.59 C 608.35 152.589 594.992 151.135 582.213 148.42 C 559.805 143.663 535.164 137.404 514.838 126.664 C 513.765 126.095 515.216 124.371 516.255 124.371 C 516.363 124.371 516.468 124.389 516.564 124.429 C 538.96 133.849 566.773 140.243 590.748 143.598 C 604.377 145.505 617.753 146.469 631.157 146.469 C 642.407 146.469 653.681 145.79 665.136 144.419 L 665.577 144.443 C 657.952 147.03 650.279 149.423 642.488 151.376 C 635.617 152.194 628.661 152.59 621.703 152.59 Z " fill="rgb(147,110,74)"/><path d=" M 627.271 141.129 C 627.268 141.129 627.265 141.129 627.262 141.129 C 613.828 140.953 600.713 137.604 588.273 132.747 C 587.438 132.42 588.589 131.086 589.364 131.086 C 589.421 131.086 589.478 131.094 589.532 131.11 C 602.356 135.069 615.513 136.172 628.634 138.501 C 630.37 138.811 628.397 141.129 627.271 141.129 Z " fill="rgb(147,110,74)"/><path d=" M 758.847 257.835 C 758.619 257.835 758.45 257.696 758.426 257.341 C 757.228 240.577 755.387 224.634 752.045 208.714 C 751.591 202.268 751.246 195.81 751.023 189.345 C 762.292 209.688 761.751 233.655 760.255 256.544 C 760.222 257.074 759.378 257.835 758.847 257.835 Z " fill="rgb(147,110,74)"/><path d=" M 769.175 249.207 C 768.86 249.207 768.617 249.008 768.55 248.496 C 766.349 231.467 766.397 214.351 762.595 197.54 C 760.051 186.29 756.57 175.338 753.357 164.275 C 756.09 166.592 761.352 174.446 764.601 179.497 C 773.242 200.672 773.863 224.81 771.154 247.369 C 771.067 248.084 769.923 249.207 769.175 249.207 Z " fill="rgb(147,110,74)"/><path d=" M 625.952 374.774 C 614.141 376.94 602.085 378.048 590.144 378.639 C 580.459 379.12 570.806 379.564 561.091 379.51 C 555.787 379.483 508.597 374.87 515.883 364.119 L 515.672 363.99 C 512.435 367.035 513.594 369.657 517.27 372.05 C 533.638 382.751 554.745 382.06 573.407 382.06 C 600.737 382.06 630.136 379.027 655.559 368.858 L 655.607 368.822 C 645.723 370.846 635.923 373.24 625.952 374.774 Z " fill="rgb(195,150,110)"/><path d=" M 592.517 436.623 C 589.478 436.623 586.429 436.443 583.399 436.113 C 566.455 434.275 549.793 427.136 537.758 415.003 C 525.98 403.128 522.156 387.229 517.111 371.945 C 517.162 371.978 517.216 372.014 517.27 372.05 C 531.764 381.526 549.973 382.069 566.911 382.069 C 569.101 382.069 571.269 382.06 573.407 382.06 C 598.463 382.06 625.259 379.51 649.138 371.248 C 649.207 388.001 643.335 405.101 633.319 418.559 C 623.427 431.851 608.161 436.623 592.517 436.623 Z " fill="rgb(145,50,51)"/><path d=" M 566.911 382.069 C 549.973 382.069 531.764 381.526 517.27 372.05 C 517.216 372.014 517.162 371.978 517.111 371.945 C 516.994 371.588 516.877 371.233 516.757 370.879 C 533.479 378.507 552.279 381.15 570.698 381.15 C 574.636 381.15 578.552 381.03 582.429 380.814 C 604.026 379.616 628.46 378.79 649.135 370.969 C 649.135 371.062 649.138 371.155 649.138 371.248 C 625.259 379.51 598.463 382.06 573.407 382.06 C 571.269 382.06 569.101 382.069 566.911 382.069 Z " fill="rgb(117,45,46)"/><path d=" M 541.005 391.746 C 572.116 397.593 602.644 397.965 632.382 388.271 C 633.455 384.099 633.902 379.808 633.707 375.468 C 616.9 379.18 598.848 379.907 582.429 380.814 C 565.779 381.742 548.381 380.865 532.109 376.393 C 533.995 382.033 537.17 387.259 541.005 391.746 Z " fill="rgb(254,254,254)"/><path d=" M 621.441 424.857 C 613.666 419.646 603.545 415.634 594.283 414.306 C 585.108 412.979 574.729 413.643 566.169 417.553 C 560.869 419.985 557.445 423.328 554.484 427.28 C 563.43 432.025 573.356 435.014 583.399 436.113 C 597.953 437.72 613.014 435.759 624.553 427.259 C 623.55 426.415 622.541 425.59 621.441 424.857 Z " fill="rgb(238,135,151)"/><path d=" M 648.483 312.156 C 648.684 322.965 645.567 331.879 641.539 332.107 C 637.491 332.293 634.025 323.707 633.845 312.871 C 633.647 302.068 636.764 293.124 640.8 292.935 C 644.834 292.74 648.285 301.347 648.483 312.156 Z " fill="rgb(72,51,46)"/><path d=" M 639.96 304.363 C 639.803 307.636 638.662 310.243 637.443 310.207 C 636.217 310.135 635.374 307.435 635.524 304.149 C 635.692 300.882 636.818 298.269 638.043 298.335 C 639.263 298.395 640.137 301.104 639.96 304.363 Z " fill="rgb(254,254,254)"/><path d=" M 518.03 312.105 C 517.402 322.896 513.606 331.542 509.57 331.455 C 505.512 331.314 502.728 322.478 503.395 311.682 C 504.017 300.894 507.828 292.223 511.864 292.353 C 515.925 292.449 518.676 301.302 518.03 312.105 Z " fill="rgb(72,51,46)"/><path d=" M 510.128 303.672 C 509.714 306.927 508.39 309.414 507.179 309.294 C 505.963 309.138 505.323 306.372 505.744 303.116 C 506.155 299.87 507.474 297.35 508.702 297.506 C 509.918 297.656 510.567 300.422 510.128 303.672 Z " fill="rgb(254,254,254)"/><path d=" M 507.407 345.613 C 506.32 351.622 493.211 354.1 478.093 351.196 C 462.968 348.258 451.589 341.024 452.652 335.005 C 453.718 328.98 466.857 326.476 481.958 329.419 C 497.082 332.359 508.462 339.609 507.407 345.613 Z " fill="rgb(247,203,194)"/><path d=" M 716.918 348.324 C 717.183 354.424 704.935 359.743 689.537 360.199 C 674.134 360.671 661.46 356.1 661.16 349.994 C 660.886 343.889 673.143 338.561 688.528 338.098 C 703.914 337.657 716.627 342.225 716.918 348.324 Z " fill="rgb(247,203,194)"/><path d=" M 564.145 358.292 C 563.178 355.037 564.442 351.289 567.743 349.91 C 574.02 347.276 581.177 348.976 586.519 352.977 C 586.652 352.649 586.646 352.259 586.363 351.976 C 584.003 349.403 579.87 347.099 575.537 346.018 C 576.975 342.402 575.401 339.624 573.464 336.438 C 573.104 335.882 570.608 333.849 570.839 334.561 C 571.584 337.017 572.533 342.558 570.542 344.462 C 570.227 344.766 570.035 345.087 569.875 345.399 C 567.001 345.549 564.328 346.456 562.355 348.475 C 556.361 354.664 563.578 365.353 570.575 366.722 L 570.92 366.584 C 567.803 364.569 565.286 362.088 564.145 358.292 Z " fill="rgb(195,150,110)"/><path d=" M 674.113 279.571 C 672.299 264.348 660.781 242.518 642.149 245.272 C 627.079 247.507 614.372 263.794 614.234 278.898 C 614.234 280.243 616.135 280.736 616.603 279.39 C 620.727 267.548 626.178 258.684 638.893 255.112 C 655.144 250.546 661.688 269.568 664.743 281.331 C 666.274 287.331 674.852 285.685 674.113 279.571 Z " fill="rgb(115,58,48)"/><path d=" M 512.234 246.407 C 495.629 244.402 477.261 261.963 479.861 278.949 C 480.324 282.006 484.318 283.307 486.574 281.241 C 495.166 273.361 494.466 257.608 509.378 256.989 C 521.823 256.476 531.163 268.322 534.491 278.94 C 534.863 280.117 536.824 280.273 536.851 278.814 C 536.96 264.58 527.526 248.246 512.234 246.407 Z " fill="rgb(115,58,48)"/><path d=" M 516.294 354.721 C 489.283 361.959 455.445 343.549 453.135 312.94 C 449.207 260.38 528.547 250.634 546.507 287.851 C 561.325 318.568 542.84 347.58 516.294 354.721 Z  M 556.31 285.1 C 530.076 231.62 430.605 256.321 442.209 318.493 C 449.186 355.935 489.748 370.762 522.532 361.899 C 555.147 353.067 571.167 315.355 556.31 285.1 Z " fill="rgb(114,126,129)"/><path d=" M 680.774 354.133 C 653.763 361.389 619.928 342.952 617.618 312.357 C 613.687 259.793 693.039 250.056 710.978 287.268 C 725.796 317.979 707.308 347.006 680.774 354.133 Z  M 720.786 284.502 C 694.619 231.165 595.064 255.652 606.677 317.901 C 613.666 355.361 654.225 370.182 687.003 361.32 C 719.651 352.487 735.626 314.775 720.786 284.502 Z " fill="rgb(114,126,129)"/><path d=" M 617.342 319.703 C 614.204 305.032 602.935 288.304 586.33 287.598 C 569.143 286.866 556.463 300.509 553.601 316.772 C 553.129 319.481 555.799 321.022 558.088 319.881 C 568.605 314.688 575.179 297.96 589.036 303.963 C 598.998 308.282 602.497 321.791 613.149 324.262 C 615.964 324.932 617.883 322.247 617.342 319.703 Z " fill="rgb(75,83,84)"/><path d=" M 666.43 266.885 C 613.306 274.3 620.769 318.544 620.769 318.544 C 622.054 302.332 631.815 276.009 665.355 271.827 C 698.89 267.665 713.314 307.345 713.314 307.345 C 712.654 274.777 677.506 265.336 666.43 266.885 Z " fill="rgb(254,254,254)"/><path d=" M 500.518 266.797 C 447.381 274.219 454.844 318.475 454.844 318.475 C 456.139 302.254 465.899 275.928 499.44 271.753 C 532.983 267.589 547.402 307.27 547.402 307.27 C 546.735 274.708 511.591 265.257 500.518 266.797 Z " fill="rgb(254,254,254)"/></g><path d=" M 21.74 802.234 L 80.33 802.234 L 80.33 802.234 Q 106.25 802.234 121.64 816.949 L 121.64 816.949 L 121.64 816.949 Q 137.03 831.664 137.03 857.314 L 137.03 857.314 L 137.03 857.314 Q 137.03 882.964 117.59 901.189 L 117.59 901.189 L 117.59 901.189 Q 98.15 919.414 70.07 919.414 L 70.07 919.414 L 54.68 919.414 L 57.92 988.534 L 21.74 988.534 L 24.98 922.924 L 21.74 802.234 L 21.74 802.234 Z  M 70.61 829.504 L 70.61 829.504 L 57.38 829.504 L 55.49 893.224 L 73.85 893.224 L 73.85 893.224 Q 87.35 893.224 94.775 884.314 L 94.775 884.314 L 94.775 884.314 Q 102.2 875.404 102.2 858.934 L 102.2 858.934 L 102.2 858.934 Q 102.2 829.504 70.61 829.504 Z  M 145.13 932.104 L 145.13 932.104 Q 145.13 897.544 163.76 873.514 L 163.76 873.514 L 163.76 873.514 Q 182.39 849.484 207.365 849.484 L 207.365 849.484 L 207.365 849.484 Q 232.34 849.484 246.245 865.684 L 246.245 865.684 L 246.245 865.684 Q 260.15 881.884 260.15 908.614 L 260.15 908.614 L 260.15 908.614 Q 260.15 944.254 242.195 967.879 L 242.195 967.879 L 242.195 967.879 Q 224.24 991.504 196.97 991.504 L 196.97 991.504 L 196.97 991.504 Q 174.56 991.504 159.845 974.629 L 159.845 974.629 L 159.845 974.629 Q 145.13 957.754 145.13 932.104 L 145.13 932.104 L 145.13 932.104 Z  M 229.91 922.654 L 229.91 922.654 L 229.91 922.654 Q 229.91 883.504 203.18 883.504 L 203.18 883.504 L 203.18 883.504 Q 175.37 883.504 175.37 920.224 L 175.37 920.224 L 175.37 920.224 Q 175.37 939.394 183.2 950.194 L 183.2 950.194 L 183.2 950.194 Q 191.03 960.994 203.855 960.994 L 203.855 960.994 L 203.855 960.994 Q 216.68 960.994 223.295 951.139 L 223.295 951.139 L 223.295 951.139 Q 229.91 941.284 229.91 922.654 Z  M 283.37 857.854 L 319.55 851.104 L 316.31 918.334 L 319.28 981.784 L 283.1 988.534 L 286.34 922.924 L 283.37 857.854 L 283.37 857.854 Z  M 281.48 811.549 L 281.48 811.549 L 281.48 811.549 Q 281.48 802.504 288.5 795.349 L 288.5 795.349 L 288.5 795.349 Q 295.52 788.194 304.7 788.194 L 304.7 788.194 L 304.7 788.194 Q 313.88 788.194 318.74 793.189 L 318.74 793.189 L 318.74 793.189 Q 323.6 798.184 323.6 808.174 L 323.6 808.174 L 323.6 808.174 Q 323.6 818.164 316.715 825.319 L 316.715 825.319 L 316.715 825.319 Q 309.83 832.474 300.785 832.474 L 300.785 832.474 L 300.785 832.474 Q 291.74 832.474 286.61 826.534 L 286.61 826.534 L 286.61 826.534 Q 281.48 820.594 281.48 811.549 Z  M 427.55 920.224 L 427.55 920.224 Q 427.55 901.594 424.31 895.384 L 424.31 895.384 L 424.31 895.384 Q 421.07 889.174 409.19 889.174 L 409.19 889.174 L 409.19 889.174 Q 397.31 889.174 382.19 898.624 L 382.19 898.624 L 382.19 918.334 L 385.16 981.784 L 348.98 988.534 L 352.22 922.924 L 352.22 922.924 Q 351.14 886.744 346.28 858.124 L 346.28 858.124 L 378.95 851.104 L 378.95 851.104 Q 380.84 866.764 381.65 881.614 L 381.65 881.614 L 381.65 881.614 Q 385.7 876.214 390.83 870.949 L 390.83 870.949 L 390.83 870.949 Q 395.96 865.684 407.03 859.069 L 407.03 859.069 L 407.03 859.069 Q 418.1 852.454 430.385 852.454 L 430.385 852.454 L 430.385 852.454 Q 442.67 852.454 451.04 862.039 L 451.04 862.039 L 451.04 862.039 Q 459.41 871.624 459.41 888.094 L 459.41 888.094 L 457.79 918.334 L 460.76 983.134 L 424.31 989.884 L 427.55 920.224 L 427.55 920.224 Z  M 561.74 962.074 L 561.74 962.074 L 561.74 962.074 Q 540.68 988.534 525.29 988.534 L 525.29 988.534 L 525.29 988.534 Q 506.12 988.534 493.835 972.874 L 493.835 972.874 L 493.835 972.874 Q 481.55 957.214 481.55 932.644 L 481.55 932.644 L 481.55 932.644 Q 481.55 898.894 500.315 875.674 L 500.315 875.674 L 500.315 875.674 Q 519.08 852.454 546.35 852.454 L 546.35 852.454 L 561.47 854.614 L 561.47 849.484 L 558.23 786.304 L 595.22 779.554 L 591.71 918.334 L 591.71 942.094 L 591.71 942.094 Q 591.71 958.294 599.81 979.354 L 599.81 979.354 L 570.65 991.504 L 570.65 991.504 Q 562.82 975.304 561.74 962.074 Z  M 511.79 918.604 L 511.79 918.604 L 511.79 918.604 Q 511.79 935.884 518.135 945.604 L 518.135 945.604 L 518.135 945.604 Q 524.48 955.324 536.495 955.324 L 536.495 955.324 L 536.495 955.324 Q 548.51 955.324 561.47 945.604 L 561.47 945.604 L 561.47 887.284 L 561.47 887.284 Q 545.27 884.044 537.44 884.044 L 537.44 884.044 L 537.44 884.044 Q 525.29 884.044 518.54 892.684 L 518.54 892.684 L 518.54 892.684 Q 511.79 901.324 511.79 918.604 Z  M 674.6 960.994 L 674.6 960.994 L 674.6 960.994 Q 682.43 960.994 691.07 956.944 L 691.07 956.944 L 691.07 956.944 Q 699.71 952.894 704.57 948.844 L 704.57 948.844 L 709.43 944.794 L 721.85 959.914 L 721.85 959.914 Q 719.15 964.504 713.48 970.444 L 713.48 970.444 L 713.48 970.444 Q 707.81 976.384 702.005 980.569 L 702.005 980.569 L 702.005 980.569 Q 696.2 984.754 686.615 988.129 L 686.615 988.129 L 686.615 988.129 Q 677.03 991.504 666.77 991.504 L 666.77 991.504 L 666.77 991.504 Q 644.9 991.504 631.13 974.899 L 631.13 974.899 L 631.13 974.899 Q 617.36 958.294 617.36 932.104 L 617.36 932.104 L 617.36 932.104 Q 617.36 899.164 636.53 874.324 L 636.53 874.324 L 636.53 874.324 Q 655.7 849.484 681.35 849.484 L 681.35 849.484 L 681.35 849.484 Q 701.06 849.484 711.995 860.554 L 711.995 860.554 L 711.995 860.554 Q 722.93 871.624 722.93 891.604 L 722.93 891.604 L 722.93 891.604 Q 722.93 903.484 718.88 918.604 L 718.88 918.604 L 713.48 924.274 L 645.98 930.484 L 645.98 930.484 Q 650.57 960.994 674.6 960.994 Z  M 674.6 877.294 L 674.6 877.294 L 674.6 877.294 Q 662.72 877.294 654.62 886.879 L 654.62 886.879 L 654.62 886.879 Q 646.52 896.464 645.17 911.314 L 645.17 911.314 L 691.07 905.644 L 691.07 905.644 Q 691.88 899.434 691.88 895.384 L 691.88 895.384 L 691.88 895.384 Q 691.88 877.294 674.6 877.294 Z  M 856.04 970.714 L 826.07 991.234 L 793.94 943.444 L 760.73 991.234 L 734 976.384 L 776.39 921.574 L 736.16 871.894 L 766.13 851.374 L 795.56 897.004 L 827.42 850.834 L 853.61 867.034 L 813.38 919.414 L 856.04 970.714 L 856.04 970.714 Z  M 869 857.854 L 884.66 857.854 L 884.66 828.424 L 921.11 821.404 L 917.6 857.854 L 950.27 857.854 L 947.3 879.994 L 916.52 879.994 L 915.17 936.424 L 915.17 936.424 Q 915.17 949.114 917.6 953.299 L 917.6 953.299 L 917.6 953.299 Q 920.03 957.484 926.51 957.484 L 926.51 957.484 L 926.51 957.484 Q 932.99 957.484 943.79 954.514 L 943.79 954.514 L 945.41 973.684 L 945.41 973.684 Q 927.59 988.534 914.09 988.534 L 914.09 988.534 L 914.09 988.534 Q 900.59 988.534 891.95 978.679 L 891.95 978.679 L 891.95 978.679 Q 883.31 968.824 883.31 952.894 L 883.31 952.894 L 884.93 922.654 L 884.66 879.994 L 866.03 879.994 L 869 857.854 L 869 857.854 Z  M 1018.58 960.994 L 1018.58 960.994 L 1018.58 960.994 Q 1026.41 960.994 1035.05 956.944 L 1035.05 956.944 L 1035.05 956.944 Q 1043.69 952.894 1048.55 948.844 L 1048.55 948.844 L 1053.41 944.794 L 1065.83 959.914 L 1065.83 959.914 Q 1063.13 964.504 1057.46 970.444 L 1057.46 970.444 L 1057.46 970.444 Q 1051.79 976.384 1045.985 980.569 L 1045.985 980.569 L 1045.985 980.569 Q 1040.18 984.754 1030.595 988.129 L 1030.595 988.129 L 1030.595 988.129 Q 1021.01 991.504 1010.75 991.504 L 1010.75 991.504 L 1010.75 991.504 Q 988.88 991.504 975.11 974.899 L 975.11 974.899 L 975.11 974.899 Q 961.34 958.294 961.34 932.104 L 961.34 932.104 L 961.34 932.104 Q 961.34 899.164 980.51 874.324 L 980.51 874.324 L 980.51 874.324 Q 999.68 849.484 1025.33 849.484 L 1025.33 849.484 L 1025.33 849.484 Q 1045.04 849.484 1055.975 860.554 L 1055.975 860.554 L 1055.975 860.554 Q 1066.91 871.624 1066.91 891.604 L 1066.91 891.604 L 1066.91 891.604 Q 1066.91 903.484 1062.86 918.604 L 1062.86 918.604 L 1057.46 924.274 L 989.96 930.484 L 989.96 930.484 Q 994.55 960.994 1018.58 960.994 Z  M 1018.58 877.294 L 1018.58 877.294 L 1018.58 877.294 Q 1006.7 877.294 998.6 886.879 L 998.6 886.879 L 998.6 886.879 Q 990.5 896.464 989.15 911.314 L 989.15 911.314 L 1035.05 905.644 L 1035.05 905.644 Q 1035.86 899.434 1035.86 895.384 L 1035.86 895.384 L 1035.86 895.384 Q 1035.86 877.294 1018.58 877.294 Z  M 1087.43 858.124 L 1087.43 858.124 L 1120.1 851.104 L 1120.1 851.104 Q 1122.53 871.894 1123.34 890.524 L 1123.34 890.524 L 1123.34 890.524 Q 1147.91 852.454 1169.51 852.454 L 1169.51 852.454 L 1166.54 894.574 L 1166.54 894.574 Q 1150.88 894.574 1141.835 897.409 L 1141.835 897.409 L 1141.835 897.409 Q 1132.79 900.244 1123.34 908.614 L 1123.34 908.614 L 1123.34 918.334 L 1126.31 981.784 L 1090.13 988.534 L 1093.37 922.924 L 1093.37 922.924 Q 1092.29 886.744 1087.43 858.124 Z " fill="rgb(0,0,0)"/></svg>